<svg width="337" height="336" viewBox="0 0 337 336" fill="none" xmlns="http://www.w3.org/2000/svg">
<rect x="57.9995" y="81" width="66" height="66" rx="33" fill="#85FF6C"/>
<rect x="135" y="81" width="65" height="66" rx="32.5" fill="#FFDD54"/>
<rect x="213" y="81" width="66" height="66" rx="33" fill="#49A4FF"/>
<path d="M246.461 165.131C250.702 160.956 257.578 160.956 261.819 165.131C266.06 169.306 266.06 176.074 261.819 180.248L202.264 238.869C198.023 243.044 191.148 243.044 186.907 238.869L158.18 210.593L157.985 210.396C153.94 206.208 154.006 199.585 158.18 195.476C162.355 191.366 169.083 191.302 173.338 195.283L173.538 195.476L194.585 216.193L246.461 165.131Z" fill="#85FF6C"/>
<path d="M115.52 0C126.566 5.31711e-05 135.52 8.95434 135.52 20V22.4551H201.483V20C201.483 8.95431 210.437 0 221.483 0H225.692C236.737 0.00010425 245.692 8.95437 245.692 20V22.4551H259.025C301.707 22.4552 336.372 56.7863 336.911 99.3408L336.917 100.348V204.203C336.917 246.885 302.586 281.55 260.032 282.089L259.025 282.096H182.423L139.073 325.446C116.705 347.814 78.5791 332.273 77.9849 300.885L77.978 300.141V282.096C35.2957 282.095 0.631272 247.764 0.0922852 205.21L0.0864258 204.203V100.348C0.0864258 57.3292 34.9596 22.4553 77.978 22.4551H91.311V20C91.311 8.9544 100.265 0.000148686 111.311 0H115.52ZM77.978 44.209C46.9738 44.2092 21.8403 69.3434 21.8403 100.348V204.203C21.8403 235.207 46.9738 260.342 77.978 260.342H99.7319V300.141C99.732 312.644 114.85 318.906 123.691 310.064L173.414 260.342H259.025C290.029 260.342 315.164 235.207 315.164 204.203V100.348C315.164 69.3434 290.029 44.2091 259.025 44.209H77.978ZM91.311 157.89C109.526 157.89 124.292 172.656 124.292 190.871C124.292 209.086 109.526 223.852 91.311 223.852C73.0962 223.852 58.3298 209.086 58.3296 190.871C58.3296 172.656 73.096 157.89 91.311 157.89Z" fill="url(#paint0_linear_6_2)"/>
<defs>
<linearGradient id="paint0_linear_6_2" x1="0.0864258" y1="0" x2="336.914" y2="336" gradientUnits="userSpaceOnUse">
<stop stop-color="#AEAEAE"/>
<stop offset="1" stop-color="#484848"/>
</linearGradient>
</defs>
</svg>
