<svg width="192" height="192" viewBox="0 0 192 192" fill="none" xmlns="http://www.w3.org/2000/svg">
<rect width="192" height="192" fill="url(#paint0_linear_8_75)"/>
<rect x="60.7498" y="64.5" width="24.75" height="24.75" rx="12.375" fill="#F8D667"/>
<rect x="98.6248" y="69.75" width="32.25" height="13.875" rx="6.9375" fill="#8EBDFF"/>
<path d="M114.548 92.6741C116.138 91.1086 118.717 91.1086 120.307 92.6741C121.897 94.2396 121.897 96.7776 120.307 98.3431L97.9741 120.326C96.3837 121.891 93.8053 121.891 92.2149 120.326L81.4426 109.722L81.3692 109.648C79.8525 108.078 79.877 105.594 81.4426 104.053C83.0081 102.512 85.5312 102.488 87.1266 103.981L87.2018 104.053L95.0945 111.822L114.548 92.6741Z" fill="#89FA96"/>
<path d="M116.47 33C121.048 33 124.759 36.7112 124.759 41.2891V41.4209H129.759C145.765 41.4209 158.764 54.295 158.966 70.2529L158.969 70.6299V109.576C158.969 125.582 146.095 138.581 130.137 138.783L129.759 138.786H101.033L84.7776 155.042C76.3895 163.43 62.0923 157.602 61.8694 145.832L61.8665 145.553V138.786C45.8608 138.786 32.8617 125.912 32.6594 109.954L32.6575 109.576V70.6299C32.6577 54.4983 45.7349 41.4211 61.8665 41.4209H66.8665V41.2891C66.8666 36.7113 70.5778 33.0002 75.1555 33C79.7334 33 83.4455 36.7112 83.4456 41.2891V41.4209H108.181V41.2891C108.181 36.7113 111.892 33.0002 116.47 33ZM61.8665 49.5781C50.2402 49.5784 40.8149 59.0036 40.8147 70.6299V109.576C40.8148 121.203 50.2401 130.628 61.8665 130.628H70.0247V145.553C70.0248 150.241 75.6936 152.59 79.009 149.274L97.6555 130.628H129.759C141.386 130.628 150.811 121.203 150.811 109.576V70.6299C150.811 59.0035 141.386 49.5782 129.759 49.5781H61.8665Z" fill="url(#paint1_linear_8_75)"/>
<defs>
<linearGradient id="paint0_linear_8_75" x1="-27.883" y1="-30.3158" x2="215.205" y2="223.626" gradientUnits="userSpaceOnUse">
<stop stop-color="#848484"/>
<stop offset="1"/>
</linearGradient>
<linearGradient id="paint1_linear_8_75" x1="32.6575" y1="33" x2="158.968" y2="159" gradientUnits="userSpaceOnUse">
<stop stop-color="#AEAEAE"/>
<stop offset="1" stop-color="#484848"/>
</linearGradient>
</defs>
</svg>
