<svg width="337" height="336" viewBox="0 0 337 336" fill="none" xmlns="http://www.w3.org/2000/svg">
<rect x="74.8149" y="84" width="65.8373" height="66" rx="32.9187" fill="#F8D667"/>
<rect x="175.566" y="98" width="85.7881" height="37" rx="18.5" fill="#8EBDFF"/>
<path d="M216.925 162.131C221.156 157.956 228.015 157.956 232.245 162.131C236.476 166.306 236.476 173.074 232.245 177.248L172.838 235.869C168.607 240.044 161.748 240.044 157.518 235.869L128.862 207.593L128.667 207.396C124.633 203.208 124.698 196.585 128.862 192.476C133.027 188.366 139.738 188.302 143.983 192.283L144.183 192.476L165.178 213.193L216.925 162.131Z" fill="#89FA96"/>
<path d="M115.186 0C126.232 2.58751e-05 135.186 8.95432 135.186 20V22.4551H200.987V20C200.987 8.95431 209.941 0 220.987 0H225.086C236.132 2.58751e-05 245.086 8.95432 245.086 20V22.4551H258.386C300.964 22.4551 335.543 56.7862 336.081 99.3408L336.086 100.348V204.203C336.086 246.885 301.841 281.55 259.391 282.089L258.386 282.096H181.974L138.73 325.446C116.417 347.814 78.3863 332.273 77.7935 300.885L77.7866 300.141V282.096C35.2093 282.096 0.629998 247.765 0.0922852 205.21L0.0864258 204.203V100.348C0.0864258 57.3291 34.8741 22.4551 77.7866 22.4551H91.0864V20C91.0864 8.95431 100.041 0 111.086 0H115.186ZM77.7866 44.209C46.8587 44.209 21.7866 69.3433 21.7866 100.348V204.203C21.7867 235.207 46.8587 260.342 77.7866 260.342H99.4868V300.141C99.487 312.644 114.567 318.906 123.386 310.064L172.987 260.342H258.386C289.314 260.342 314.386 235.207 314.386 204.203V100.348C314.386 69.3433 289.314 44.209 258.386 44.209H77.7866Z" fill="url(#paint0_linear_8_108)"/>
<defs>
<linearGradient id="paint0_linear_8_108" x1="0.0864258" y1="0" x2="336.911" y2="335.169" gradientUnits="userSpaceOnUse">
<stop stop-color="#AEAEAE"/>
<stop offset="1" stop-color="#484848"/>
</linearGradient>
</defs>
</svg>
