<svg width="192" height="192" viewBox="0 0 192 192" fill="none" xmlns="http://www.w3.org/2000/svg">
<rect width="192" height="192" fill="url(#paint0_linear_3_24)"/>
<rect x="45.7504" y="56.625" width="30" height="30" rx="15" fill="#85FF6C"/>
<rect x="80.6254" y="56.625" width="29.625" height="30" rx="14.8125" fill="#FFDD54"/>
<rect x="115.875" y="56.625" width="30" height="30" rx="15" fill="#49A4FF"/>
<path d="M131.095 94.7986C133.018 92.9005 136.135 92.9005 138.058 94.7986C139.981 96.6967 139.981 99.7741 138.058 101.672L111.056 128.326C109.133 130.225 106.015 130.225 104.092 128.326L91.0676 115.47L90.9789 115.38C89.1451 113.476 89.1747 110.465 91.0676 108.596C92.9605 106.728 96.0111 106.698 97.9401 108.508L98.031 108.596L107.574 118.016L131.095 94.7986Z" fill="#85FF6C"/>
<path d="M120.773 19.875C126.305 19.875 130.79 24.3591 130.79 29.8906V30.0498H136.831C156.172 30.0498 171.879 45.6062 172.123 64.8887L172.126 65.3447V112.404C172.126 131.745 156.57 147.452 137.287 147.696L136.831 147.699H102.122L82.4785 167.343C72.343 177.478 55.0674 170.436 54.7979 156.214L54.7949 155.876V147.699C35.4547 147.699 19.7475 132.144 19.5029 112.861L19.5 112.404V65.3447C19.5001 45.8521 35.3023 30.0499 54.7949 30.0498H60.8359V29.8906C60.8362 24.3592 65.321 19.8751 70.8525 19.875C76.384 19.8751 80.8679 24.3592 80.8682 29.8906V30.0498H110.758V29.8906C110.758 24.3593 115.242 19.8753 120.773 19.875ZM54.7949 39.9072C40.7462 39.9073 29.3576 51.296 29.3574 65.3447V112.404C29.3575 126.453 40.7462 137.843 54.7949 137.843H64.6523V155.876C64.6525 161.541 71.5016 164.379 75.5078 160.373L98.0391 137.843H136.831C150.88 137.843 162.269 126.453 162.27 112.404V65.3447C162.269 51.296 150.88 39.9072 136.831 39.9072H54.7949ZM60.8359 91.4189C69.0896 91.4189 75.7812 98.1096 75.7812 106.363C75.7812 114.617 69.0896 121.308 60.8359 121.308C52.5824 121.307 45.8916 114.617 45.8916 106.363C45.8916 98.1097 52.5824 91.4192 60.8359 91.4189Z" fill="url(#paint1_linear_3_24)"/>
<defs>
<linearGradient id="paint0_linear_3_24" x1="-27.883" y1="-30.3158" x2="215.205" y2="223.626" gradientUnits="userSpaceOnUse">
<stop stop-color="#848484"/>
<stop offset="1"/>
</linearGradient>
<linearGradient id="paint1_linear_3_24" x1="19.5" y1="19.875" x2="172.125" y2="172.125" gradientUnits="userSpaceOnUse">
<stop stop-color="#AEAEAE"/>
<stop offset="1" stop-color="#484848"/>
</linearGradient>
</defs>
</svg>
