<svg width="512" height="512" viewBox="0 0 512 512" fill="none" xmlns="http://www.w3.org/2000/svg">
<rect width="512" height="512" fill="url(#paint0_linear_8_65)"/>
<rect x="162" y="172" width="66" height="66" rx="33" fill="#F8D667"/>
<rect x="263" y="186" width="86" height="37" rx="18.5" fill="#8EBDFF"/>
<path d="M304.461 250.131C308.702 245.956 315.578 245.956 319.819 250.131C324.06 254.306 324.06 261.074 319.819 265.248L260.264 323.869C256.023 328.044 249.148 328.044 244.907 323.869L216.18 295.593L215.985 295.396C211.94 291.208 212.006 284.585 216.18 280.476C220.355 276.366 227.083 276.302 231.338 280.283L231.538 280.476L252.585 301.193L304.461 250.131Z" fill="#89FA96"/>
<path d="M202.52 88C213.566 88 222.52 96.9543 222.52 108V110.455H288.483V108C288.483 96.9543 297.437 88 308.483 88H312.692C323.738 88.0001 332.692 96.9544 332.692 108V110.455H346.025C388.707 110.455 423.372 144.786 423.911 187.341L423.917 188.348V292.203C423.916 334.885 389.586 369.55 347.032 370.089L346.025 370.096H269.423L226.073 413.446C203.705 435.814 165.579 420.273 164.985 388.885L164.978 388.141V370.096C122.296 370.096 87.6313 335.764 87.0923 293.21L87.0864 292.203V188.348C87.0864 145.329 121.96 110.455 164.978 110.455H178.311V108C178.311 96.9544 187.265 88.0001 198.311 88H202.52ZM164.978 132.209C133.974 132.209 108.84 157.343 108.84 188.348V292.203C108.84 323.207 133.974 348.342 164.978 348.342H186.732V388.141C186.732 400.644 201.85 406.906 210.691 398.064L260.414 348.342H346.025C377.029 348.342 402.163 323.207 402.163 292.203V188.348C402.163 157.343 377.029 132.209 346.025 132.209H164.978Z" fill="url(#paint1_linear_8_65)"/>
<defs>
<linearGradient id="paint0_linear_8_65" x1="-74.3548" y1="-80.8421" x2="573.879" y2="596.335" gradientUnits="userSpaceOnUse">
<stop stop-color="#848484"/>
<stop offset="1"/>
</linearGradient>
<linearGradient id="paint1_linear_8_65" x1="87.0864" y1="88" x2="423.914" y2="424" gradientUnits="userSpaceOnUse">
<stop stop-color="#AEAEAE"/>
<stop offset="1" stop-color="#484848"/>
</linearGradient>
</defs>
</svg>
