<svg width="512" height="512" viewBox="0 0 512 512" fill="none" xmlns="http://www.w3.org/2000/svg">
<rect width="512" height="512" fill="url(#paint0_linear_4_26)"/>
<rect x="145" y="169" width="66" height="66" rx="33" fill="#85FF6C"/>
<rect x="222" y="169" width="65" height="66" rx="32.5" fill="#FFDD54"/>
<rect x="300" y="169" width="66" height="66" rx="33" fill="#49A4FF"/>
<path d="M333.461 253.131C337.702 248.956 344.578 248.956 348.819 253.131C353.06 257.306 353.06 264.074 348.819 268.248L289.264 326.869C285.023 331.044 278.148 331.044 273.907 326.869L245.18 298.593L244.985 298.396C240.94 294.208 241.006 287.585 245.18 283.476C249.355 279.366 256.083 279.302 260.338 283.283L260.538 283.476L281.585 304.193L333.461 253.131Z" fill="#85FF6C"/>
<path d="M202.52 88C213.566 88.0001 222.52 96.9543 222.52 108V110.455H288.483V108C288.483 96.9543 297.437 88 308.483 88H312.692C323.738 88.0001 332.692 96.9544 332.692 108V110.455H346.025C388.707 110.455 423.372 144.786 423.911 187.341L423.917 188.348V292.203C423.917 334.885 389.586 369.55 347.032 370.089L346.025 370.096H269.423L226.073 413.446C203.705 435.814 165.579 420.273 164.985 388.885L164.978 388.141V370.096C122.296 370.095 87.6313 335.764 87.0923 293.21L87.0864 292.203V188.348C87.0864 145.329 121.96 110.455 164.978 110.455H178.311V108C178.311 96.9544 187.265 88.0001 198.311 88H202.52ZM164.978 132.209C133.974 132.209 108.84 157.343 108.84 188.348V292.203C108.84 323.207 133.974 348.342 164.978 348.342H186.732V388.141C186.732 400.644 201.85 406.906 210.691 398.064L260.414 348.342H346.025C377.029 348.342 402.164 323.207 402.164 292.203V188.348C402.164 157.343 377.029 132.209 346.025 132.209H164.978ZM178.311 245.89C196.526 245.89 211.292 260.656 211.292 278.871C211.292 297.086 196.526 311.852 178.311 311.852C160.096 311.852 145.33 297.086 145.33 278.871C145.33 260.656 160.096 245.89 178.311 245.89Z" fill="url(#paint1_linear_4_26)"/>
<defs>
<linearGradient id="paint0_linear_4_26" x1="-74.3548" y1="-80.8421" x2="573.879" y2="596.335" gradientUnits="userSpaceOnUse">
<stop stop-color="#848484"/>
<stop offset="1"/>
</linearGradient>
<linearGradient id="paint1_linear_4_26" x1="87.0864" y1="88" x2="423.914" y2="424" gradientUnits="userSpaceOnUse">
<stop stop-color="#AEAEAE"/>
<stop offset="1" stop-color="#484848"/>
</linearGradient>
</defs>
</svg>
