<svg width="192" height="192" viewBox="0 0 192 192" fill="none" xmlns="http://www.w3.org/2000/svg">
<rect width="192" height="192" fill="url(#paint0_linear_4_38)"/>
<rect x="54.3748" y="63.375" width="24.75" height="24.75" rx="8" fill="#85FF6C"/>
<rect x="83.2498" y="63.375" width="24.375" height="24.75" rx="8" fill="#FFDD54"/>
<rect x="112.5" y="63.375" width="24.75" height="24.75" rx="8" fill="#49A4FF"/>
<path d="M125.048 94.9241C126.638 93.3586 129.217 93.3586 130.807 94.9241C132.397 96.4896 132.397 99.0276 130.807 100.593L108.474 122.576C106.884 124.141 104.305 124.141 102.715 122.576L91.9426 111.972L91.8692 111.898C90.3525 110.328 90.377 107.844 91.9426 106.303C93.5081 104.762 96.0312 104.738 97.6266 106.231L97.7018 106.303L105.594 114.072L125.048 94.9241Z" fill="#85FF6C"/>
<path d="M116.47 33C121.048 33.0001 124.759 36.7112 124.759 41.2891V41.4209H129.759C145.765 41.421 158.764 54.295 158.966 70.2529L158.969 70.6299V109.576C158.969 125.582 146.095 138.581 130.137 138.783L129.759 138.786H101.034L84.7776 155.042C76.3895 163.43 62.0923 157.603 61.8694 145.832L61.8674 145.553V138.786C45.8616 138.786 32.8617 125.912 32.6594 109.954L32.6575 109.576V70.6299C32.6577 54.4981 45.7356 41.4209 61.8674 41.4209H66.8665V41.2891C66.8665 36.7113 70.5778 33.0003 75.1555 33C79.7334 33.0001 83.4455 36.7112 83.4456 41.2891V41.4209H108.181V41.2891C108.181 36.7112 111.892 33.0002 116.47 33ZM61.8674 49.5781C50.2409 49.5781 40.8149 59.0034 40.8147 70.6299V109.576C40.8147 121.203 50.2408 130.628 61.8674 130.628H70.0247V145.553C70.0247 150.241 75.6935 152.59 79.009 149.274L97.6555 130.628H129.759C141.386 130.628 150.811 121.203 150.811 109.576V70.6299C150.811 59.0034 141.386 49.5782 129.759 49.5781H61.8674ZM71.2346 92.209C75.6529 92.209 79.2346 95.7907 79.2346 100.209V108.944C79.2346 113.363 75.6529 116.944 71.2346 116.944H62.4983C58.0802 116.944 54.4983 113.362 54.4983 108.944V100.209C54.4983 95.7908 58.0802 92.2092 62.4983 92.209H71.2346Z" fill="url(#paint1_linear_4_38)"/>
<defs>
<linearGradient id="paint0_linear_4_38" x1="-27.883" y1="-30.3158" x2="215.205" y2="223.626" gradientUnits="userSpaceOnUse">
<stop stop-color="#848484"/>
<stop offset="1"/>
</linearGradient>
<linearGradient id="paint1_linear_4_38" x1="32.6575" y1="33" x2="158.968" y2="159" gradientUnits="userSpaceOnUse">
<stop stop-color="#AEAEAE"/>
<stop offset="1" stop-color="#484848"/>
</linearGradient>
</defs>
</svg>
