<svg width="512" height="512" viewBox="0 0 512 512" fill="none" xmlns="http://www.w3.org/2000/svg">
<rect width="512" height="512" fill="url(#paint0_linear_3_25)"/>
<rect x="122.001" y="151" width="80" height="80" rx="19" fill="#85FF6C"/>
<rect x="215.001" y="151" width="79" height="80" rx="19" fill="#FFDD54"/>
<rect x="309.001" y="151" width="80" height="80" rx="19" fill="#49A4FF"/>
<path d="M349.586 252.796C354.714 247.735 363.027 247.735 368.155 252.796C373.283 257.858 373.283 266.064 368.155 271.126L296.149 342.204C291.021 347.265 282.707 347.265 277.579 342.204L242.847 307.919L242.61 307.68C237.72 302.602 237.799 294.572 242.847 289.589C247.895 284.607 256.029 284.529 261.174 289.356L261.416 289.589L286.864 314.709L349.586 252.796Z" fill="#85FF6C"/>
<path d="M195.649 53C206.695 53.0001 215.649 61.9544 215.649 73V80.1338H295.354V73C295.354 61.9546 304.308 53.0005 315.354 53H328.773C339.819 53.0001 348.773 61.9544 348.773 73V80.1338H364.884C416.458 80.1338 458.345 121.616 458.996 173.036L459.003 174.253V299.746C459.003 351.32 417.52 393.206 366.101 393.857L364.884 393.865H272.324L219.941 446.248C192.913 473.275 146.846 454.496 146.128 416.569L146.119 415.67V393.865C94.5448 393.865 52.6591 352.382 52.0078 300.962L52 299.746V174.253C52 122.272 94.1388 80.1342 146.119 80.1338H162.23V73C162.23 61.9545 171.185 53.0002 182.23 53H195.649ZM146.119 106.419C108.656 106.419 78.2852 136.79 78.2852 174.253V299.746C78.2854 337.209 108.656 367.579 146.119 367.579H172.405V415.67C172.405 430.778 190.672 438.344 201.355 427.661L261.438 367.579H364.884C402.347 367.579 432.717 337.209 432.718 299.746V174.253C432.718 136.789 402.347 106.419 364.884 106.419H146.119ZM183.083 243.783C193.576 243.783 202.083 252.29 202.083 262.783V304.487C202.083 314.981 193.576 323.487 183.083 323.487H141.378C130.885 323.487 122.378 314.981 122.378 304.487V262.783C122.378 252.29 130.885 243.783 141.378 243.783H183.083Z" fill="url(#paint1_linear_3_25)"/>
<defs>
<linearGradient id="paint0_linear_3_25" x1="-74.3548" y1="-80.8421" x2="573.879" y2="596.335" gradientUnits="userSpaceOnUse">
<stop stop-color="#848484"/>
<stop offset="1"/>
</linearGradient>
<linearGradient id="paint1_linear_3_25" x1="52" y1="53" x2="459" y2="459" gradientUnits="userSpaceOnUse">
<stop stop-color="#AEAEAE"/>
<stop offset="1" stop-color="#484848"/>
</linearGradient>
</defs>
</svg>
