<svg width="85" height="84" viewBox="0 0 85 84" fill="none" xmlns="http://www.w3.org/2000/svg">
<path d="M55.875 0C58.9269 6.59772e-05 61.4014 2.47442 61.4014 5.52637V5.61426H64.7344C75.4049 5.61432 84.0712 14.1964 84.2061 24.835L84.208 25.0869V51.0508C84.208 61.7214 75.6249 70.3876 64.9863 70.5225L64.7344 70.5234H45.584L34.7471 81.3613C29.1551 86.9533 19.6234 83.0685 19.4746 75.2217L19.4727 75.0352V70.5234C8.80231 70.5232 0.136807 61.9412 0.00195312 51.3027L0 51.0508V25.0869C0 14.3324 8.71823 5.61451 19.4727 5.61426H22.8066V5.52637C22.8066 2.47449 25.2802 0.00019301 28.332 0C31.384 6.59772e-05 33.8584 2.47442 33.8584 5.52637V5.61426H50.3496V5.52637C50.3496 2.47447 52.8231 0.000154873 55.875 0ZM22.8066 39.4727C18.2529 39.4727 14.5605 43.164 14.5605 47.7178C14.5606 52.2715 18.2529 55.9629 22.8066 55.9629C27.3602 55.9626 31.0517 52.2713 31.0518 47.7178C31.0518 43.1642 27.3602 39.4729 22.8066 39.4727Z" fill="#484848"/>
<rect x="14.4783" y="20.25" width="16.5" height="16.5" rx="8.25" fill="#85FF6C"/>
<rect x="33.7283" y="20.25" width="16.25" height="16.5" rx="8.125" fill="#FFDD54"/>
<rect x="53.2283" y="20.25" width="16.5" height="16.5" rx="8.25" fill="#49A4FF"/>
<path d="M61.5936 41.2827C62.6538 40.2391 64.3728 40.2391 65.4331 41.2827C66.4933 42.3264 66.4933 44.0184 65.4331 45.0621L50.5445 59.7173C49.4842 60.7609 47.7653 60.7609 46.705 59.7173L39.5235 52.6483L39.4746 52.599C38.4635 51.552 38.4798 49.8963 39.5235 48.869C40.5672 47.8416 42.2492 47.8256 43.3128 48.8208L43.363 48.869L48.6248 54.0483L61.5936 41.2827Z" fill="#85FF6C"/>
</svg>
