<svg width="18" height="18" viewBox="0 0 18 18" fill="none" xmlns="http://www.w3.org/2000/svg">
<rect x="4.00342" y="4.5" width="3.52692" height="3.53569" rx="1.76346" fill="#F8D667"/>
<rect x="9.40063" y="5.25" width="4.59568" height="1.98213" rx="0.991065" fill="#8EBDFF"/>
<path d="M11.6695 8.52478C11.8961 8.30115 12.2636 8.30115 12.4902 8.52478C12.7168 8.74842 12.7168 9.11099 12.4902 9.33463L9.30773 12.475C9.0811 12.6986 8.71367 12.6986 8.48703 12.475L6.95196 10.9602L6.9415 10.9497C6.72538 10.7253 6.72887 10.3705 6.95196 10.1504C7.17506 9.93025 7.53459 9.92681 7.76195 10.1401L7.77266 10.1504L8.89738 11.2602L11.6695 8.52478Z" fill="#89FA96"/>
<path d="M11.9434 0C12.5957 2.58967e-05 13.125 0.529285 13.125 1.18164V1.20312H13.8369C16.1178 1.20315 17.9702 3.04259 17.999 5.32227L18 5.37598V10.9395C17.9999 13.2259 16.1646 15.0834 13.8906 15.1123H9.74414L7.42676 17.4346C6.2315 18.6325 4.19512 17.8003 4.16309 16.1191L4.16211 16.0791V15.1123C1.8814 15.1121 0.028855 13.2727 0 10.9932V5.37598C0 3.07153 1.86341 1.20329 4.16211 1.20312H4.875V1.18164C4.875 0.529269 5.40427 0 6.05664 0C6.70882 0.000229419 7.2373 0.529411 7.2373 1.18164V1.20312H10.7617V1.18164C10.7617 0.529292 11.291 3.68461e-05 11.9434 0ZM4.16211 2.36816C2.50543 2.36832 1.16211 3.71514 1.16211 5.37598V10.9395C1.16216 12.6002 2.50546 13.9471 4.16211 13.9473H5.3252V16.0791C5.32534 16.7488 6.13304 17.0839 6.60547 16.6104L9.2627 13.9473H13.8369C15.4937 13.9472 16.8369 12.6003 16.8369 10.9395V5.37598C16.8369 3.71506 15.4937 2.36819 13.8369 2.36816H4.16211Z" fill="url(#paint0_linear_8_99)"/>
<defs>
<linearGradient id="paint0_linear_8_99" x1="0" y1="0" x2="18.044" y2="17.9555" gradientUnits="userSpaceOnUse">
<stop stop-color="#AEAEAE"/>
<stop offset="1" stop-color="#484848"/>
</linearGradient>
</defs>
</svg>
